<svg xmlns="http://www.w3.org/2000/svg" viewBox="0 0 400 260" width="400" height="260" role="img" aria-label="Холодильник">
  <defs>
    <linearGradient id="bg" x1="0" y1="0" x2="1" y2="1">
      <stop offset="0" stop-color="#e8f6ff"/>
      <stop offset="1" stop-color="#c2e2f7"/>
    </linearGradient>
    <linearGradient id="body" x1="0" y1="0" x2=".8" y2="1">
      <stop offset="0" stop-color="#ffffff"/>
      <stop offset="1" stop-color="#d6e8f4"/>
    </linearGradient>
    <linearGradient id="shine" x1="0" y1="0" x2="1" y2="0">
      <stop offset="0" stop-color="#ffffff" stop-opacity=".85"/>
      <stop offset="1" stop-color="#ffffff" stop-opacity="0"/>
    </linearGradient>
  </defs>
  <rect width="400" height="260" fill="url(#bg)"/>
  <circle cx="70" cy="212" r="82" fill="#ffffff" opacity=".28"/>
  <circle cx="344" cy="46" r="58" fill="#ffffff" opacity=".3"/>
  <g>
    <rect x="140" y="16" width="120" height="228" rx="16" fill="url(#body)" stroke="#9cbcd6" stroke-width="3"/>
    <path d="M140 108h120" stroke="#9cbcd6" stroke-width="3"/>
    <rect x="152" y="36" width="8" height="46" rx="4" fill="#2f7fb8"/>
    <rect x="152" y="128" width="8" height="72" rx="4" fill="#2f7fb8"/>
    <rect x="170" y="30" width="34" height="10" rx="5" fill="#cfe2ef"/>
    <rect x="170" y="46" width="22" height="8" rx="4" fill="#cfe2ef"/>
    <path d="M150 24h100v60c0 0-30 12-50 12s-50-12-50-12z" fill="url(#shine)"/>
    <circle cx="238" cy="60" r="5" fill="#3f8f4f"/>
    <path d="M150 232h100" stroke="#cfe2ef" stroke-width="4" stroke-linecap="round"/>
  </g>
  <g opacity=".55">
    <path d="M96 60v34M110 60v34M124 60v34" stroke="#ffffff" stroke-width="5" stroke-linecap="round"/>
  </g>
</svg>
